<svg xmlns="http://www.w3.org/2000/svg" width="1584" height="396" version="1.0" viewBox="0 0 1188 297"><defs><clipPath id="b"><path d="M0 74h389v223H0Zm0 0"/></clipPath><clipPath id="c"><path d="m68.48 801.082-406.812-444.078L105.746-49.81 512.563 394.27Zm0 0"/></clipPath><clipPath id="d"><path d="M281.95 605.531-124.864 161.45l230.61-211.258L512.562 394.27Zm0 0"/></clipPath><clipPath id="e"><path d="m68.395 801.164-406.813-444.082L105.66-49.73l406.813 444.078Zm0 0"/></clipPath><clipPath id="f"><path d="M189.133 0h441v95.438h-441Zm0 0"/></clipPath><clipPath id="g"><path d="M1103.297 223.684H1188V297h-84.703Zm0 0"/></clipPath><clipPath id="h"><path d="M292.332 19.965h441V297h-441Zm0 0"/></clipPath><clipPath id="i"><path d="M858.906 0H1188v297H858.906Zm0 0"/></clipPath><clipPath id="j"><path d="M1071.227 193.984H1188V297h-116.773Zm0 0"/></clipPath><clipPath id="k"><path d="M397.707 228.832h147V297h-147Zm0 0"/></clipPath><clipPath id="l"><path d="M397.707 240.383h147V297h-147Zm0 0"/></clipPath><clipPath id="m"><path d="M0 0h103.383v103.383H0Zm0 0"/></clipPath><clipPath id="n"><path d="M0 0h103.383v96.84H0Zm0 0"/></clipPath><linearGradient id="a" x1="792" x2="792" y1="0" y2="396" gradientTransform="scale(.75)" gradientUnits="userSpaceOnUse"><stop offset="0" stop-color="#005AF3"/><stop offset=".004" stop-color="#015AF3"/><stop offset=".008" stop-color="#025AF3"/><stop offset=".012" stop-color="#035AF3"/><stop offset=".016" stop-color="#045BF3"/><stop offset=".02" stop-color="#055BF3"/><stop offset=".023" stop-color="#065BF3"/><stop offset=".027" stop-color="#075BF3"/><stop offset=".031" stop-color="#085BF3"/><stop offset=".035" stop-color="#095BF3"/><stop offset=".039" stop-color="#0A5CF3"/><stop offset=".043" stop-color="#0B5CF4"/><stop offset=".047" stop-color="#0C5CF4"/><stop offset=".051" stop-color="#0D5CF4"/><stop offset=".055" stop-color="#0E5CF4"/><stop offset=".059" stop-color="#0F5CF4"/><stop offset=".063" stop-color="#105CF4"/><stop offset=".066" stop-color="#115DF4"/><stop offset=".07" stop-color="#125DF4"/><stop offset=".074" stop-color="#135DF4"/><stop offset=".078" stop-color="#145DF4"/><stop offset=".082" stop-color="#155DF4"/><stop offset=".086" stop-color="#165DF4"/><stop offset=".09" stop-color="#175EF4"/><stop offset=".094" stop-color="#185EF4"/><stop offset=".098" stop-color="#195EF4"/><stop offset=".102" stop-color="#1A5EF4"/><stop offset=".105" stop-color="#1B5EF4"/><stop offset=".109" stop-color="#1C5EF4"/><stop offset=".113" stop-color="#1D5EF4"/><stop offset=".117" stop-color="#1E5FF4"/><stop offset=".121" stop-color="#1F5FF4"/><stop offset=".125" stop-color="#205FF5"/><stop offset=".129" stop-color="#215FF5"/><stop offset=".133" stop-color="#225FF5"/><stop offset=".137" stop-color="#235FF5"/><stop offset=".141" stop-color="#2460F5"/><stop offset=".145" stop-color="#2560F5"/><stop offset=".148" stop-color="#2660F5"/><stop offset=".152" stop-color="#2760F5"/><stop offset=".156" stop-color="#2860F5"/><stop offset=".16" stop-color="#2960F5"/><stop offset=".164" stop-color="#2A60F5"/><stop offset=".168" stop-color="#2B61F5"/><stop offset=".172" stop-color="#2C61F5"/><stop offset=".176" stop-color="#2D61F5"/><stop offset=".18" stop-color="#2E61F5"/><stop offset=".184" stop-color="#2F61F5"/><stop offset=".188" stop-color="#3061F5"/><stop offset=".191" stop-color="#3161F5"/><stop offset=".195" stop-color="#3262F5"/><stop offset=".199" stop-color="#3362F5"/><stop offset=".203" stop-color="#3462F5"/><stop offset=".207" stop-color="#3562F5"/><stop offset=".211" stop-color="#3662F6"/><stop offset=".215" stop-color="#3762F6"/><stop offset=".219" stop-color="#3863F6"/><stop offset=".223" stop-color="#3963F6"/><stop offset=".227" stop-color="#3A63F6"/><stop offset=".23" stop-color="#3B63F6"/><stop offset=".234" stop-color="#3C63F6"/><stop offset=".238" stop-color="#3D63F6"/><stop offset=".242" stop-color="#3E63F6"/><stop offset=".246" stop-color="#3F64F6"/><stop offset=".25" stop-color="#4064F6"/><stop offset=".254" stop-color="#4164F6"/><stop offset=".258" stop-color="#4264F6"/><stop offset=".262" stop-color="#4364F6"/><stop offset=".266" stop-color="#4464F6"/><stop offset=".27" stop-color="#4565F6"/><stop offset=".273" stop-color="#4665F6"/><stop offset=".277" stop-color="#4765F6"/><stop offset=".281" stop-color="#4865F6"/><stop offset=".285" stop-color="#4965F6"/><stop offset=".289" stop-color="#4A65F6"/><stop offset=".293" stop-color="#4B65F7"/><stop offset=".297" stop-color="#4C66F7"/><stop offset=".301" stop-color="#4D66F7"/><stop offset=".305" stop-color="#4E66F7"/><stop offset=".309" stop-color="#4F66F7"/><stop offset=".313" stop-color="#5066F7"/><stop offset=".316" stop-color="#5166F7"/><stop offset=".32" stop-color="#5267F7"/><stop offset=".324" stop-color="#5367F7"/><stop offset=".328" stop-color="#5467F7"/><stop offset=".332" stop-color="#5567F7"/><stop offset=".336" stop-color="#5667F7"/><stop offset=".34" stop-color="#5767F7"/><stop offset=".344" stop-color="#5867F7"/><stop offset=".348" stop-color="#5968F7"/><stop offset=".352" stop-color="#5A68F7"/><stop offset=".355" stop-color="#5B68F7"/><stop offset=".359" stop-color="#5C68F7"/><stop offset=".363" stop-color="#5D68F7"/><stop offset=".367" stop-color="#5E68F7"/><stop offset=".371" stop-color="#5F68F7"/><stop offset=".375" stop-color="#6069F8"/><stop offset=".379" stop-color="#6169F8"/><stop offset=".383" stop-color="#6269F8"/><stop offset=".387" stop-color="#6369F8"/><stop offset=".391" stop-color="#6469F8"/><stop offset=".395" stop-color="#6569F8"/><stop offset=".398" stop-color="#666AF8"/><stop offset=".402" stop-color="#676AF8"/><stop offset=".406" stop-color="#686AF8"/><stop offset=".41" stop-color="#696AF8"/><stop offset=".414" stop-color="#6A6AF8"/><stop offset=".418" stop-color="#6B6AF8"/><stop offset=".422" stop-color="#6C6AF8"/><stop offset=".426" stop-color="#6D6BF8"/><stop offset=".43" stop-color="#6E6BF8"/><stop offset=".434" stop-color="#6F6BF8"/><stop offset=".438" stop-color="#706BF8"/><stop offset=".441" stop-color="#716BF8"/><stop offset=".445" stop-color="#726BF8"/><stop offset=".449" stop-color="#736CF8"/><stop offset=".453" stop-color="#746CF8"/><stop offset=".457" stop-color="#756CF8"/><stop offset=".461" stop-color="#766CF9"/><stop offset=".465" stop-color="#776CF9"/><stop offset=".469" stop-color="#786CF9"/><stop offset=".473" stop-color="#796CF9"/><stop offset=".477" stop-color="#7A6DF9"/><stop offset=".48" stop-color="#7B6DF9"/><stop offset=".484" stop-color="#7C6DF9"/><stop offset=".488" stop-color="#7D6DF9"/><stop offset=".492" stop-color="#7E6DF9"/><stop offset=".496" stop-color="#7F6DF9"/><stop offset=".5" stop-color="#7F6EF9"/><stop offset=".504" stop-color="#806EF9"/><stop offset=".508" stop-color="#816EF9"/><stop offset=".512" stop-color="#826EF9"/><stop offset=".516" stop-color="#836EF9"/><stop offset=".52" stop-color="#846EF9"/><stop offset=".523" stop-color="#856EF9"/><stop offset=".527" stop-color="#866FF9"/><stop offset=".531" stop-color="#876FF9"/><stop offset=".535" stop-color="#886FF9"/><stop offset=".539" stop-color="#896FF9"/><stop offset=".543" stop-color="#8A6FFA"/><stop offset=".547" stop-color="#8B6FFA"/><stop offset=".551" stop-color="#8C70FA"/><stop offset=".555" stop-color="#8D70FA"/><stop offset=".559" stop-color="#8E70FA"/><stop offset=".563" stop-color="#8F70FA"/><stop offset=".566" stop-color="#9070FA"/><stop offset=".57" stop-color="#9170FA"/><stop offset=".574" stop-color="#9270FA"/><stop offset=".578" stop-color="#9371FA"/><stop offset=".582" stop-color="#9471FA"/><stop offset=".586" stop-color="#9571FA"/><stop offset=".59" stop-color="#9671FA"/><stop offset=".594" stop-color="#9771FA"/><stop offset=".598" stop-color="#9871FA"/><stop offset=".602" stop-color="#9971FA"/><stop offset=".605" stop-color="#9A72FA"/><stop offset=".609" stop-color="#9B72FA"/><stop offset=".613" stop-color="#9C72FA"/><stop offset=".617" stop-color="#9D72FA"/><stop offset=".621" stop-color="#9E72FA"/><stop offset=".625" stop-color="#9F72FB"/><stop offset=".629" stop-color="#A073FB"/><stop offset=".633" stop-color="#A173FB"/><stop offset=".637" stop-color="#A273FB"/><stop offset=".641" stop-color="#A373FB"/><stop offset=".645" stop-color="#A473FB"/><stop offset=".648" stop-color="#A573FB"/><stop offset=".652" stop-color="#A673FB"/><stop offset=".656" stop-color="#A774FB"/><stop offset=".66" stop-color="#A874FB"/><stop offset=".664" stop-color="#A974FB"/><stop offset=".668" stop-color="#AA74FB"/><stop offset=".672" stop-color="#AB74FB"/><stop offset=".676" stop-color="#AC74FB"/><stop offset=".68" stop-color="#AD75FB"/><stop offset=".684" stop-color="#AE75FB"/><stop offset=".688" stop-color="#AF75FB"/><stop offset=".691" stop-color="#B075FB"/><stop offset=".695" stop-color="#B175FB"/><stop offset=".699" stop-color="#B275FB"/><stop offset=".703" stop-color="#B375FB"/><stop offset=".707" stop-color="#B476FB"/><stop offset=".711" stop-color="#B576FC"/><stop offset=".715" stop-color="#B676FC"/><stop offset=".719" stop-color="#B776FC"/><stop offset=".723" stop-color="#B876FC"/><stop offset=".727" stop-color="#B976FC"/><stop offset=".73" stop-color="#BA77FC"/><stop offset=".734" stop-color="#BB77FC"/><stop offset=".738" stop-color="#BC77FC"/><stop offset=".742" stop-color="#BD77FC"/><stop offset=".746" stop-color="#BE77FC"/><stop offset=".75" stop-color="#BF77FC"/><stop offset=".754" stop-color="#C077FC"/><stop offset=".758" stop-color="#C178FC"/><stop offset=".762" stop-color="#C278FC"/><stop offset=".766" stop-color="#C378FC"/><stop offset=".77" stop-color="#C478FC"/><stop offset=".773" stop-color="#C578FC"/><stop offset=".777" stop-color="#C678FC"/><stop offset=".781" stop-color="#C778FC"/><stop offset=".785" stop-color="#C879FC"/><stop offset=".789" stop-color="#C979FC"/><stop offset=".793" stop-color="#CA79FD"/><stop offset=".797" stop-color="#CB79FD"/><stop offset=".801" stop-color="#CC79FD"/><stop offset=".805" stop-color="#CD79FD"/><stop offset=".809" stop-color="#CE7AFD"/><stop offset=".813" stop-color="#CF7AFD"/><stop offset=".816" stop-color="#D07AFD"/><stop offset=".82" stop-color="#D17AFD"/><stop offset=".824" stop-color="#D27AFD"/><stop offset=".828" stop-color="#D37AFD"/><stop offset=".832" stop-color="#D47AFD"/><stop offset=".836" stop-color="#D57BFD"/><stop offset=".84" stop-color="#D67BFD"/><stop offset=".844" stop-color="#D77BFD"/><stop offset=".848" stop-color="#D87BFD"/><stop offset=".852" stop-color="#D97BFD"/><stop offset=".855" stop-color="#DA7BFD"/><stop offset=".859" stop-color="#DB7CFD"/><stop offset=".863" stop-color="#DC7CFD"/><stop offset=".867" stop-color="#DD7CFD"/><stop offset=".871" stop-color="#DE7CFD"/><stop offset=".875" stop-color="#DF7CFD"/><stop offset=".879" stop-color="#E07CFE"/><stop offset=".883" stop-color="#E17CFE"/><stop offset=".887" stop-color="#E27DFE"/><stop offset=".891" stop-color="#E37DFE"/><stop offset=".895" stop-color="#E47DFE"/><stop offset=".898" stop-color="#E57DFE"/><stop offset=".902" stop-color="#E67DFE"/><stop offset=".906" stop-color="#E77DFE"/><stop offset=".91" stop-color="#E87EFE"/><stop offset=".914" stop-color="#E97EFE"/><stop offset=".918" stop-color="#EA7EFE"/><stop offset=".922" stop-color="#EB7EFE"/><stop offset=".926" stop-color="#EC7EFE"/><stop offset=".93" stop-color="#ED7EFE"/><stop offset=".934" stop-color="#EE7EFE"/><stop offset=".938" stop-color="#EF7FFE"/><stop offset=".941" stop-color="#F07FFE"/><stop offset=".945" stop-color="#F17FFE"/><stop offset=".949" stop-color="#F27FFE"/><stop offset=".953" stop-color="#F37FFE"/><stop offset=".957" stop-color="#F47FFE"/><stop offset=".961" stop-color="#F580FF"/><stop offset=".965" stop-color="#F680FF"/><stop offset=".969" stop-color="#F780FF"/><stop offset=".973" stop-color="#F880FF"/><stop offset=".977" stop-color="#F980FF"/><stop offset=".98" stop-color="#FA80FF"/><stop offset=".984" stop-color="#FB80FF"/><stop offset=".988" stop-color="#FC81FF"/><stop offset=".992" stop-color="#FD81FF"/><stop offset=".996" stop-color="#FE81FF"/><stop offset="1" stop-color="#FF81FF"/></linearGradient></defs><path fill="#fff" d="M-118.8-29.7h1425.6v356.4H-118.8z"/><path fill="url(#a)" d="M-118.8-29.7h1425.6v356.4H-118.8z"/><g clip-path="url(#b)"><g clip-path="url(#c)"><g clip-path="url(#d)"><g clip-path="url(#e)"><path fill="#fff" d="m318.645 183.277 1.53 1.864-83.773 69.035-1.53-1.86Zm-464.766 383.016 1.535 1.86 83.77-69.036-1.536-1.86Zm387.25-306.07 1.43 1.937 87.27-64.558-1.43-1.938Zm-396.902 293.609 1.43 1.938 87.269-64.56-1.43-1.937ZM246.96 268.445l1.332 2.008 90.527-59.902-1.328-2.008Zm-411.723 272.438 1.328 2.008 90.528-59.903-1.328-2.008ZM252.355 276.96l1.223 2.078 93.54-55.082-1.223-2.074Zm-425.417 250.516 1.222 2.078 93.54-55.082-1.223-2.078ZM257.296 285.75l1.113 2.14 96.293-50.113-1.11-2.136Zm-437.945 227.906 1.109 2.137 96.297-50.11-1.113-2.136Zm442.421-218.87.997 2.19 98.785-45-1-2.19ZM-187.5 499.456l1 2.195 98.781-45.004-.996-2.191Zm453.27-195.414.882 2.242 101.004-39.773-.883-2.239Zm-459.372 180.879.883 2.242 101.004-39.773-.883-2.239Zm462.88-171.426.761 2.281 102.945-34.43-.761-2.28Zm-468.208 156.59.762 2.281 102.945-34.43-.761-2.28Zm471.211-146.969.645 2.324 104.605-28.996-.64-2.32Zm-475.758 131.871.641 2.32 104.61-28.992-.645-2.32Zm478.258-122.101.52 2.351 105.984-23.48-.523-2.352ZM-207.23 439.676l.523 2.351 105.98-23.48-.52-2.352Zm483.996-96.906.398 2.378 107.063-17.902-.395-2.379Zm-486.938 81.418.395 2.378 107.066-17.902-.398-2.379Zm488.402-71.442.27 2.395 107.855-12.274-.27-2.394ZM-212.3 408.57l.269 2.39 107.855-12.272-.27-2.391Zm491.468-45.785.148 2.402 108.352-6.609-.148-2.406Zm-492.781 30.07.148 2.407 108.352-6.61-.149-2.406Zm493.195-20 .023 2.41 108.547-.933-.02-2.406Zm-493.68 4.247.024 2.406 108.547-.934-.02-2.406Zm493.567 5.836-.106 2.41 108.45 4.746.105-2.406Zm-493.223-21.598-.105 2.406 108.445 4.746.105-2.406ZM278.828 393l-.23 2.398 108.05 10.418.23-2.394Zm-491.422-47.383-.23 2.399 108.05 10.418.235-2.399Zm490.254 57.399-.355 2.382 107.355 16.059.356-2.383Zm-488.265-73.04-.356 2.383 107.356 16.059.355-2.383Zm486.574 82.981-.48 2.36 106.37 21.656.48-2.364Zm-483.774-98.496-.476 2.363 106.367 21.656.48-2.363Zm481.567 108.332-.606 2.332L378.25 452.32l.602-2.336Zm-477.957-123.676-.602 2.332 105.09 27.196.605-2.336ZM271.043 432.5l-.727 2.297 103.524 32.656.726-2.297Zm-470.828-148.52-.723 2.297 103.524 32.657.722-2.297Zm467.601 158.075-.84 2.254 101.672 38.03.844-2.257Zm-462.41-172.961-.84 2.258 101.672 38.027.844-2.254Zm458.692 182.332-.961 2.207 99.543 43.297.96-2.207Zm-452.723-196.922-.96 2.207 99.542 43.297.961-2.207Zm448.52 206.082-1.075 2.156 97.14 48.45 1.075-2.157Zm-441.797-220.344-1.075 2.156 97.137 48.45 1.074-2.157ZM255.215 469.52l-1.188 2.093 94.473 53.469 1.188-2.098Zm-429.66-243.168-1.188 2.097 94.473 53.465 1.187-2.094Zm424.52 251.84-1.294 2.035 91.543 58.336 1.293-2.032Zm-416.345-265.32-1.292 2.034 91.542 58.336 1.293-2.031Zm410.758 273.714-1.398 1.96 88.363 63.048 1.402-1.961ZM-157.398 199.84l-1.403 1.96 88.367 63.048 1.399-1.961Zm395.867 294.836-1.5 1.883 84.945 67.586 1.5-1.883ZM-147.86 187.289l-1.5 1.883 84.941 67.586 1.504-1.883Zm379.894 315.149-1.594 1.804 81.293 71.938 1.594-1.801Zm-369.71-327.184-1.598 1.8 81.293 71.942 1.593-1.805Zm362.882 334.598-1.687 1.718 77.414 76.098 1.687-1.719ZM-126.875 163.77l-1.691 1.718 77.414 76.094 1.687-1.719Zm343.094 354.757 73.328 80.043 1.777-1.629-73.328-80.043ZM-117.27 154.492l73.329 80.04 1.777-1.626-73.328-80.043Zm325.84 370.602 69.035 83.77 1.86-1.532-69.035-83.77Zm-313.98-380.992 69.035 83.77 1.86-1.532-69.036-83.77ZM200.586 531.25l64.559 87.27 1.933-1.43-64.558-87.274Zm-293.61-396.902 64.56 87.27 1.933-1.434-64.559-87.27ZM192.29 536.98l59.902 90.528 2.008-1.328-59.898-90.532ZM-80.145 125.254l59.899 90.531 2.012-1.332-59.903-90.527ZM183.707 542.27l55.078 93.539 2.078-1.223-55.082-93.54ZM-66.809 116.852l55.082 93.535 2.075-1.223-55.078-93.539Zm241.664 430.246 50.114 96.297 2.136-1.114-50.113-96.293ZM-53.05 109.152l50.114 96.293 2.136-1.11-50.113-96.292Zm218.817 442.309 45.004 98.785 2.19-1-45.003-98.785ZM-38.906 102.188l45.004 98.785 2.191-1-45.004-98.786ZM156.46 555.34l39.77 101.004 2.242-.883-39.77-101.004ZM-24.418 95.973l39.77 101.004 2.242-.883-39.77-101.004ZM146.965 558.73l34.43 102.946 2.285-.766-34.43-102.945ZM-9.625 90.523 24.809 193.47l2.28-.766L-7.343 89.758Zm146.93 471.09 28.996 104.61 2.32-.645-28.996-104.605ZM5.434 85.855 34.43 190.461l2.32-.64L7.754 85.21Zm122.074 478.137 23.48 105.98 2.352-.519-23.48-105.984ZM20.718 81.984 44.2 187.964l2.352-.519L23.07 81.461Zm96.88 483.868L135.5 672.918l2.375-.398-17.902-107.067ZM36.18 78.914 54.082 185.98l2.375-.398L38.555 78.516Zm71.425 488.277 12.274 107.856 2.39-.274-12.273-107.855Zm-55.82-490.53L64.06 184.515l2.39-.27-12.273-107.86Zm45.77 491.347 6.613 108.347 2.402-.148-6.61-108.348ZM67.485 75.227l6.609 108.347 2.406-.144-6.613-108.352Zm19.992 493.066.933 108.547 2.406-.02-.93-108.547Zm-4.243-493.68.934 108.551 2.41-.023-.933-108.547Zm-5.836 493.438L72.648 676.5l2.407.105 4.75-108.449ZM99 74.828l-4.75 108.45 2.406.105 4.75-108.45ZM67.348 567.285l-10.422 108.05 2.398.231 10.418-108.05ZM114.73 75.867l-10.418 108.051 2.399.23 10.418-108.05ZM57.348 565.992l-16.063 107.36 2.387.355 16.055-107.355Zm73.039-488.265-16.059 107.359 2.379.355L132.77 78.086ZM47.43 564.18 25.773 670.547l2.36.48 21.656-106.37Zm98.492-483.774-21.656 106.371 2.359.477 21.656-106.367Zm-108.3 481.442-27.196 105.09 2.332.605 27.195-105.09ZM161.296 83.89l-27.195 105.09 2.335.605 27.192-105.09ZM27.945 559.008-4.71 662.53l2.297.723L30.242 559.73ZM176.47 88.18l-32.656 103.523 2.296.723 32.657-103.524ZM18.434 555.664l-38.028 101.672 2.258.844 38.027-101.672Zm172.96-462.41-38.03 101.672 2.257.844 38.027-101.672ZM9.11 551.828l-43.296 99.543 2.207.961 43.296-99.543ZM206.035 99.105l-43.297 99.54 2.207.96 43.297-99.542ZM0 547.508l-48.45 97.14 2.157 1.075 48.45-97.141ZM220.348 105.71l-48.45 97.14 2.157 1.075 48.449-97.14ZM-8.872 542.719l-53.464 94.468 2.094 1.188 53.469-94.473Zm243.169-429.66-53.469 94.468 2.098 1.188 53.465-94.469ZM-17.48 537.469l-58.336 91.547 2.03 1.293 58.337-91.543Zm265.32-416.344-58.336 91.543 2.031 1.297 58.336-91.547ZM-25.8 531.777l-63.052 88.368 1.961 1.398 63.051-88.363ZM260.94 129.891l-63.046 88.363 1.96 1.402 63.051-88.367ZM-33.812 525.66l-67.59 84.944 1.886 1.5 67.586-84.945Zm307.386-386.333-67.59 84.945 1.887 1.5 67.586-84.941Zm-315.07 379.8-71.941 81.294 1.804 1.594 71.938-81.29Zm327.184-369.71-71.942 81.289 1.805 1.598 71.937-81.293ZM-48.829 512.207l-76.094 77.414 1.719 1.688 76.094-77.414Zm346.086-352.082-76.098 77.414 1.719 1.688 76.098-77.414Zm-433.086 418.11 1.629 1.777 80.043-73.324-1.63-1.778ZM228.21 244.745l1.629 1.777 80.043-73.324-1.63-1.777Zm0 0"/></g></g></g></g><g clip-path="url(#f)"><path fill="#fff" d="m398.973 95.32-1.762-.093 4.16-79.38 1.762.094Zm23.078-440.398-1.762-.09-4.16 79.379 1.762.09ZM395.77 15.406l-1.754-.183-8.309 79.05 1.754.188Zm37.785-359.531-1.75-.184-8.309 79.051 1.754.184ZM388.44 14.488l-1.742-.273-12.433 78.508 1.742.277Zm56.555-357.062-1.742-.274-12.434 78.508 1.743.277ZM381.176 13.19l-1.727-.367-16.523 77.75 1.722.367Zm75.164-353.613-1.727-.367-16.527 77.75 1.726.367ZM373.988 11.512l-1.707-.457-20.57 76.777 1.703.457Zm93.567-349.196-1.707-.457-20.57 76.782 1.702.453ZM366.895 9.457l-1.676-.543-24.563 75.598 1.676.543Zm111.714-343.816-1.68-.547-24.562 75.597 1.68.547ZM359.922 7.039l-1.649-.633-28.484 74.207 1.645.633Zm129.55-337.504-1.644-.629-28.484 74.207 1.644.633ZM353.083 4.254l-1.61-.715-32.331 72.613 1.609.72Zm147.04-330.258-1.61-.715-32.332 72.614 1.613.718ZM346.397 1.117l-1.57-.8-36.086 70.824 1.57.8Zm164.125-322.11-1.574-.8-36.086 70.824 1.57.801ZM339.891-2.362l-1.528-.883-39.746 68.84 1.528.879Zm180.754-313.078-1.528-.883-39.742 68.84 1.527.879ZM333.57-6.18l-1.48-.96-43.293 66.66 1.48.96ZM530.465-309.37l-1.48-.961-43.294 66.664 1.48.961ZM327.46-10.324l-1.426-1.04-46.723 64.31 1.426 1.034Zm212.488-292.469-1.426-1.039-46.722 64.309 1.426 1.035ZM321.574-14.781l-1.37-1.114L270.18 45.88l1.37 1.113Zm227.508-280.95-1.371-1.109-50.024 61.774 1.372 1.109ZM315.93-19.542l-1.309-1.18-53.187 59.07 1.308 1.184Zm241.898-268.656-1.308-1.18-53.188 59.07 1.309 1.184ZM310.543-24.59l-1.246-1.247-56.207 56.203 1.246 1.25Zm255.629-255.63-1.246-1.246-56.207 56.207 1.246 1.246ZM305.43-29.914l-1.18-1.309-59.074 53.188 1.183 1.308Zm268.656-241.898-1.18-1.313-59.074 53.191 1.184 1.309ZM300.598-35.496l-1.11-1.371-61.773 50.023 1.11 1.371Zm280.949-227.508-1.11-1.371-61.773 50.023 1.11 1.372ZM296.07-41.328l-1.039-1.426L230.727 3.97l1.035 1.426Zm292.47-212.488-1.04-1.43-64.305 46.723 1.035 1.425ZM291.847-47.383l-.961-1.48-66.664 43.289.96 1.48Zm303.191-196.894-.96-1.48-66.665 43.292.961 1.48ZM287.953-53.657l-.883-1.527-68.84 39.747.883 1.527ZM601.031-234.41l-.883-1.528-68.84 39.743.883 1.527ZM284.391-60.121l-.801-1.57-70.824 36.086.8 1.57ZM606.5-224.242l-.8-1.574-70.825 36.09.8 1.57ZM281.168-66.766l-.715-1.609-72.617 32.332.715 1.61Zm330.258-147.039-.715-1.61-72.617 32.33.718 1.612ZM278.3-73.566l-.633-1.649-74.207 28.488.633 1.645Zm337.5-129.555-.633-1.649-74.207 28.489.633 1.644ZM275.793-80.511l-.543-1.677-75.598 24.563.543 1.68Zm343.816-111.712-.543-1.68-75.597 24.567.547 1.676ZM273.652-87.578l-.457-1.703-76.777 20.574.457 1.703Zm349.196-93.563-.457-1.707-76.782 20.575.457 1.703ZM271.883-94.742l-.367-1.727-77.75 16.524.367 1.726Zm353.613-75.164-.367-1.727-77.75 16.528.367 1.726Zm-355.004 67.91-.273-1.742-78.512 12.437.277 1.742Zm357.063-56.55-.278-1.743-78.507 12.434.277 1.742Zm-358.07 49.237-.184-1.754-79.055 8.31.184 1.753Zm359.53-37.789-.183-1.754-79.055 8.313.188 1.754ZM268.86-116.664l-.093-1.762-79.38 4.16.094 1.762Zm361.016-18.918-.094-1.766-79.379 4.16.094 1.762Zm-361.258 9.773h-79.484v1.766h79.484Zm361.516 0h-79.488v1.766h79.488Zm-361.274-7.379-79.379-4.16-.093 1.766 79.379 4.156Zm361.016 18.922-79.379-4.16-.094 1.762 79.38 4.16Zm-360.39-26.277-79.055-8.309-.184 1.754 79.055 8.309Zm359.53 37.79-79.05-8.31-.188 1.754L628.832-101Zm-358.523-45.102-78.508-12.434-.277 1.742 78.512 12.434Zm357.063 56.554-78.508-12.437-.277 1.742 78.507 12.437Zm-355.672-63.804-77.75-16.528-.367 1.727 77.75 16.527Zm353.613 75.16-77.75-16.524-.367 1.727 77.75 16.523Zm-351.844-82.328-76.78-20.575-.458 1.707 76.781 20.57Zm349.196 93.566-76.782-20.574-.457 1.703 76.782 20.574ZM275.793-169.34l-75.598-24.562-.543 1.675 75.598 24.567ZM619.609-57.625l-75.593-24.562-.547 1.675 75.597 24.563ZM278.301-176.281l-74.207-28.489-.633 1.649 74.207 28.484ZM615.8-46.727l-74.207-28.488-.633 1.649 74.207 28.484ZM281.168-183.086l-72.613-32.328-.72 1.61 72.614 32.331ZM611.426-36.043l-72.614-32.332-.718 1.61 72.617 32.331ZM284.39-189.727l-70.825-36.09-.8 1.575 70.824 36.086ZM606.5-25.605l-70.824-36.086-.801 1.57 70.824 36.086Zm-318.547-170.59-68.84-39.743-.883 1.528 68.84 39.742ZM601.031-15.437l-68.84-39.747-.882 1.528 68.84 39.746ZM291.848-202.465l-66.664-43.293-.961 1.48 66.664 43.294ZM595.039-5.575l-66.664-43.288-.96 1.48 66.663 43.29ZM296.07-208.522l-64.308-46.723-1.035 1.426 64.304 46.722ZM588.54 3.969l-64.31-46.723-1.035 1.426L587.5 5.395Zm-287.942-218.32-61.774-50.024-1.11 1.371 61.774 50.024ZM581.547 13.155l-61.774-50.023-1.109 1.37 61.774 50.024ZM305.43-219.934l-59.07-53.191-1.18 1.313 59.07 53.187ZM574.086 21.961l-59.07-53.188-1.184 1.313 59.074 53.187ZM310.543-225.258l-56.203-56.207-1.25 1.246 56.207 56.207ZM566.172 30.367 509.965-25.84l-1.246 1.25 56.207 56.207ZM315.93-230.309l-53.188-59.07-1.308 1.18 53.187 59.074ZM557.828 38.348l-53.187-59.07-1.309 1.179 53.188 59.07ZM321.574-235.066l-50.023-61.774-1.371 1.11 50.023 61.773ZM549.082 45.879l-50.023-61.774-1.372 1.114 50.024 61.773ZM327.461-239.523l-46.723-64.309-1.425 1.039 46.722 64.305ZM539.949 52.945l-46.722-64.308-1.426 1.039 46.722 64.304ZM333.57-243.668l-43.293-66.664-1.48.96 43.293 66.665ZM530.465 59.52 487.172-7.14l-1.48.96 43.292 66.66ZM339.89-247.488l-39.746-68.836-1.528.883 39.746 68.836ZM520.645 65.594l-39.743-68.84-1.527.883 39.742 68.836ZM346.398-250.97l-36.086-70.824-1.57.8 36.086 70.825Zm164.125 322.11L474.433.316l-1.57.801 36.086 70.824ZM353.082-254.105 320.75-326.72l-1.61.715 32.333 72.617Zm147.04 330.257L467.792 3.54l-1.613.715 32.332 72.617Zm-140.2-333.039-28.488-74.207-1.645.633 28.484 74.207Zm129.55 337.5L460.989 6.406l-1.644.633 28.484 74.207ZM366.896-259.309l-24.563-75.597-1.676.547 24.563 75.597Zm111.714 343.82L454.047 8.915l-1.68.543 24.563 75.598Zm-104.62-345.87-20.575-76.782-1.703.457 20.57 76.782Zm93.566 349.191L446.98 11.055l-1.703.457 20.57 76.777Zm-86.38-350.871-16.527-77.75-1.722.367 16.523 77.75ZM456.34 90.574l-16.527-77.75-1.727.364 16.527 77.753ZM388.44-264.34l-12.433-78.508-1.742.274 12.437 78.512Zm56.555 357.063-12.433-78.508-1.743.273L443.254 93Zm-49.226-357.98-8.31-79.052-1.753.184 8.309 79.05Zm37.785 359.53-8.305-79.05-1.754.183 8.309 79.051Zm-30.422-360.062-4.16-79.379-1.762.09 4.16 79.379ZM422.05 95.227l-4.16-79.38-1.762.094 4.16 79.38Zm-11.54-440.653h-1.761v79.488h1.762Zm0 361.512h-1.761v79.488h1.762Zm0 0"/></g><g clip-path="url(#g)"><path fill="#fff" fill-opacity=".21" d="M1176.797 370.684c-40.527 0-73.5-32.973-73.5-73.5s32.973-73.5 73.5-73.5 73.5 32.972 73.5 73.5-32.973 73.5-73.5 73.5m0-145.543c-39.727 0-72.043 32.316-72.043 72.043 0 39.726 32.316 72.046 72.043 72.046 39.726 0 72.047-32.32 72.047-72.046s-32.32-72.043-72.047-72.043m0 0"/></g><path fill="#fff" fill-opacity=".5" d="M1176.797 347.863c-27.945 0-50.68-22.734-50.68-50.68s22.735-50.68 50.68-50.68 50.68 22.735 50.68 50.68c0 27.946-22.735 50.68-50.68 50.68m0-99.902c-27.14 0-49.223 22.082-49.223 49.223s22.082 49.222 49.223 49.222c27.144 0 49.223-22.082 49.223-49.222s-22.079-49.223-49.223-49.223m0 0"/><path fill="#fff" d="M1176.797 325.043c-15.36 0-27.86-12.496-27.86-27.86 0-15.359 12.5-27.859 27.86-27.859 15.363 0 27.86 12.5 27.86 27.86 0 15.363-12.497 27.859-27.86 27.859m0-54.262c-14.559 0-26.402 11.844-26.402 26.403s11.843 26.402 26.402 26.402c14.558 0 26.402-11.844 26.402-26.402s-11.844-26.403-26.402-26.403m0 0"/><g clip-path="url(#h)"><path fill="#fff" d="m502.172 460.707-1.762-.094 4.16-79.379 1.762.094ZM525.25 20.313l-1.762-.094-4.16 79.379 1.762.093Zm-26.281 360.484-1.754-.184-8.309 79.051 1.754.184Zm37.785-359.535-1.75-.184-8.309 79.055 1.75.183ZM491.64 379.879l-1.743-.277-12.433 78.511 1.742.274Zm56.554-357.063-1.742-.277-12.433 78.512 1.742.273Zm-63.82 355.762-1.727-.367-16.523 77.75 1.723.367Zm75.164-353.613-1.726-.367-16.528 77.75 1.727.367Zm-82.355 351.933-1.704-.457-20.57 76.782 1.703.457Zm93.57-349.195-1.707-.457-20.57 76.781 1.703.457Zm-100.66 347.145-1.676-.547-24.563 75.597 1.676.543Zm111.715-343.82-1.68-.544-24.563 75.598 1.68.543ZM463.12 372.425l-1.648-.633L432.988 446l1.645.633Zm129.55-337.5-1.644-.633L562.54 108.5l1.649.633Zm-136.39 334.719-1.61-.72-32.331 72.618 1.61.715Zm147.04-330.258-1.61-.719-32.332 72.617 1.613.715Zm-153.723 327.12-1.57-.8-36.09 70.824 1.574.801ZM613.723 44.399l-1.575-.8-36.086 70.824 1.57.8ZM443.09 363.023l-1.531-.882-39.743 68.84 1.528.882ZM623.844 49.945l-1.528-.883-39.742 68.84 1.528.883ZM436.77 359.207l-1.48-.96-43.294 66.663 1.48.961ZM633.664 56.016l-1.48-.961-43.293 66.664 1.48.96ZM430.66 355.063l-1.426-1.036-46.722 64.305 1.425 1.04Zm212.488-292.47-1.425-1.034L595 125.863l1.426 1.04ZM424.773 350.606l-1.37-1.109-50.024 61.774 1.371 1.109ZM652.281 69.656l-1.37-1.11-50.024 61.774 1.37 1.11ZM419.13 345.848l-1.309-1.18-53.187 59.07 1.308 1.18ZM661.027 77.19l-1.308-1.18-53.188 59.071 1.309 1.18ZM413.742 340.797l-1.246-1.246-56.207 56.207 1.246 1.246Zm255.63-255.625-1.247-1.25-56.207 56.207 1.246 1.25Zm-260.743 250.3-1.18-1.308-59.074 53.188 1.18 1.312ZM677.285 93.575l-1.18-1.308-59.074 53.187 1.18 1.309ZM403.797 329.891l-1.11-1.371-61.773 50.023 1.11 1.371Zm280.95-227.508-1.11-1.371-61.774 50.023 1.11 1.371ZM399.27 324.063l-1.04-1.426-64.304 46.718 1.035 1.43ZM691.734 111.57l-1.035-1.425-64.308 46.722 1.039 1.426ZM395.047 318.004l-.961-1.48-66.664 43.292.96 1.48Zm303.191-196.895-.96-1.48-66.665 43.293.961 1.48ZM391.152 311.734l-.882-1.527-68.84 39.742.882 1.528ZM704.23 130.977l-.882-1.528-68.84 39.746.883 1.528ZM387.59 305.27l-.8-1.575-70.83 36.086.806 1.574ZM709.7 141.145l-.802-1.57-70.824 36.085.801 1.57Zm-325.333 157.48-.715-1.61-72.617 32.329.715 1.61Zm330.258-147.043-.715-1.61-72.617 32.333.719 1.61ZM381.5 291.82l-.633-1.644-74.207 28.484.633 1.649ZM719 162.266l-.633-1.645-74.207 28.484.633 1.649ZM378.992 284.879l-.543-1.68-75.597 24.563.543 1.68ZM722.81 173.164l-.543-1.676-75.598 24.563.547 1.676ZM376.852 277.813l-.457-1.704-76.778 20.57.457 1.704Zm349.195-93.567-.457-1.703-76.781 20.57.457 1.707Zm-350.965 86.399-.367-1.727-77.75 16.527.367 1.727Zm353.613-75.165-.367-1.726-77.75 16.527.367 1.727Zm-355.004 67.915-.273-1.743-78.512 12.434.278 1.742Zm357.063-56.555-.277-1.742-78.508 12.437.277 1.738Zm-358.07 49.242-.184-1.754-79.055 8.309.184 1.754Zm359.53-37.789-.183-1.754-79.054 8.309.183 1.754Zm-360.155 30.43-.094-1.762-79.38 4.16.095 1.762Zm361.015-18.918-.094-1.762-79.378 4.16.093 1.762Zm-361.258 9.777h-79.484v1.762h79.484Zm361.516 0h-79.488v1.762h79.488Zm-361.273-7.379-79.38-4.16-.093 1.762 79.379 4.16Zm361.015 18.918-79.379-4.16-.093 1.762 79.378 4.16Zm-360.39-26.273-79.055-8.309-.184 1.75 79.055 8.313Zm359.53 37.789-79.054-8.309-.183 1.754 79.054 8.309Zm-358.523-45.102-78.507-12.437-.278 1.742 78.512 12.437Zm357.063 56.55-78.508-12.433-.277 1.743 78.508 12.433Zm-355.672-63.804-77.75-16.527-.367 1.726 77.75 16.528Zm353.613 75.164-77.75-16.527-.367 1.727 77.75 16.527Zm-351.843-82.328-76.782-20.574-.457 1.703 76.782 20.574Zm349.195 93.563-76.781-20.57-.457 1.702 76.78 20.57ZM378.992 196.05l-75.597-24.566-.543 1.68 75.597 24.563ZM722.81 307.763l-75.594-24.563-.547 1.676 75.598 24.566ZM381.5 189.105l-74.207-28.484-.633 1.645 74.207 28.488ZM719 318.66l-74.207-28.484-.633 1.644 74.207 28.485ZM384.367 182.305l-72.613-32.332-.719 1.609 72.613 32.332Zm330.258 147.039-72.613-32.328-.719 1.609 72.617 32.328ZM387.59 175.66l-70.824-36.086-.805 1.57 70.828 36.086ZM709.7 339.781l-70.825-36.086-.8 1.575 70.823 36.085ZM391.151 169.195l-68.84-39.746-.882 1.528 68.84 39.746ZM704.23 349.95l-68.84-39.742-.882 1.527 68.84 39.743ZM395.047 162.922l-66.664-43.293-.961 1.48 66.664 43.293Zm303.191 196.894-66.664-43.293-.96 1.48 66.663 43.294ZM399.27 156.863l-64.31-46.718-1.034 1.425 64.304 46.723Zm292.464 212.492-64.304-46.718-1.04 1.425 64.31 46.723Zm-287.937-218.32-61.774-50.023-1.109 1.37 61.774 50.024Zm280.95 227.508-61.774-50.023-1.11 1.37 61.774 50.024Zm-276.118-233.09-59.07-53.187-1.18 1.308 59.07 53.188Zm268.656 241.899-59.074-53.188-1.18 1.309 59.074 53.187ZM413.742 140.129 357.54 83.922l-1.25 1.25 56.207 56.207Zm255.63 255.629-56.208-56.207-1.246 1.246 56.207 56.207ZM419.128 135.082l-53.188-59.07-1.308 1.18 53.187 59.07Zm241.898 268.656-53.187-59.074-1.309 1.184 53.188 59.07ZM424.773 130.32 374.75 68.547l-1.371 1.11 50.023 61.773Zm227.508 280.95-50.023-61.774-1.371 1.11 50.023 61.773Zm-221.62-285.407L383.937 61.56l-1.426 1.035 46.722 64.308Zm212.487 292.469-46.722-64.305-1.426 1.036 46.723 64.308ZM436.77 121.719l-43.293-66.664-1.48.96 43.292 66.665ZM633.664 424.91l-43.293-66.664-1.48.961 43.293 66.664ZM443.09 117.902l-39.746-68.84-1.528.883 39.743 68.84ZM623.844 430.98l-39.742-68.84-1.528.883 39.742 68.84ZM449.598 114.422l-36.086-70.824-1.575.8 36.09 70.825Zm164.125 322.11-36.09-70.825-1.57.8 36.085 70.825ZM456.28 111.284 423.95 38.668l-1.61.719L454.673 112Zm147.04 330.254-32.329-72.613-1.613.719 32.332 72.613ZM463.12 108.5l-28.488-74.207-1.645.633 28.485 74.207ZM592.671 446l-28.484-74.207-1.648.633 28.488 74.207ZM470.095 106.082 445.53 30.484l-1.676.543 24.563 75.598Zm111.715 343.816-24.563-75.597-1.68.547 24.563 75.593Zm-104.625-345.87-20.57-76.778-1.704.457 20.57 76.777Zm93.57 349.195L550.18 376.44l-1.703.457 20.57 76.782Zm-86.379-350.875-16.527-77.75-1.723.367 16.523 77.75Zm75.164 353.613-16.527-77.75-1.727.367 16.528 77.75Zm-67.898-354.91-12.434-78.512-1.742.277 12.433 78.508Zm56.554 357.058-12.433-78.507-1.742.273 12.433 78.512ZM498.97 100.133l-8.309-79.055-1.754.184 8.309 79.054Zm37.785 359.531-8.309-79.055-1.75.188 8.309 79.05ZM506.332 99.598l-4.16-79.38-1.762.095 4.16 79.378Zm18.918 361.015-4.16-79.379-1.762.094 4.16 79.379ZM513.71 19.965h-1.76v79.488h1.76Zm0 361.512h-1.76v79.488h1.76Zm0 0"/></g><g clip-path="url(#i)"><path fill="#fff" d="m1068.746 440.746-1.762-.094 4.16-79.379 1.762.09ZM1091.824.348l-1.762-.09-4.16 79.379 1.762.09Zm-26.281 360.484-1.754-.184-8.309 79.051 1.754.184Zm37.785-359.531-1.75-.184-8.308 79.051 1.75.184Zm-45.113 358.613-1.742-.273-12.434 78.507 1.742.274ZM1114.77 2.852l-1.743-.274-12.433 78.508 1.742.273Zm-63.82 355.761-1.727-.367-16.524 77.75 1.723.367ZM1126.112 5l-1.726-.363-16.528 77.75 1.727.363Zm-82.355 351.938-1.703-.458-20.57 76.778 1.702.457Zm93.57-349.196-1.707-.457-20.57 76.778 1.703.457Zm-100.66 347.14-1.676-.542-24.562 75.594 1.675.546Zm111.715-343.816-1.68-.546-24.562 75.597 1.68.543Zm-118.688 341.395-1.648-.633-28.485 74.211 1.645.633Zm129.551-337.5-1.644-.633-28.489 74.207 1.649.633Zm-136.39 334.719-1.61-.715-32.332 72.613 1.61.715Zm147.039-330.258-1.61-.719-32.332 72.617 1.613.715Zm-153.723 327.121-1.57-.8-36.09 70.823 1.574.801Zm164.125-322.11-1.574-.8-36.086 70.824 1.57.8Zm-170.633 318.63-1.531-.883-39.742 68.836 1.527.882Zm180.754-313.079-1.527-.882-39.743 68.836 1.528.882Zm-187.074 309.258-1.48-.96-43.294 66.663 1.48.961Zm196.894-303.187-1.48-.961-43.293 66.664 1.48.96ZM997.234 335.102l-1.425-1.04-46.723 64.31 1.426 1.034Zm212.489-292.473-1.426-1.035-46.723 64.304 1.426 1.04ZM991.348 330.64l-1.371-1.11-50.024 61.774 1.371 1.11Zm227.507-280.946-1.37-1.11-50.024 61.774 1.371 1.11ZM985.703 325.883l-1.308-1.18-53.188 59.07 1.309 1.18Zm241.899-268.656-1.309-1.18-53.188 59.07 1.31 1.18ZM980.316 320.836l-1.246-1.25-56.207 56.207 1.246 1.246Zm255.63-255.629-1.247-1.246-56.207 56.207 1.246 1.246ZM975.202 315.512l-1.18-1.313-59.074 53.188 1.18 1.312ZM1243.86 73.613l-1.18-1.312-59.074 53.187 1.18 1.313ZM970.371 309.926l-1.11-1.371-61.773 50.023 1.11 1.375Zm280.95-227.504-1.11-1.375-61.774 50.023 1.11 1.371ZM965.843 304.098l-1.04-1.426-64.304 46.723 1.035 1.425Zm292.465-212.493-1.036-1.425-64.308 46.722 1.039 1.426ZM961.62 298.04l-.96-1.48-66.665 43.293.961 1.48Zm303.192-196.89-.961-1.481-66.665 43.289.961 1.48Zm-307.086 190.62-.883-1.527-68.84 39.742.883 1.532Zm313.078-180.753-.883-1.528-68.84 39.742.883 1.528Zm-316.64 174.289-.802-1.57-70.828 36.085.805 1.57Zm322.108-164.125-.8-1.57-70.825 36.085.801 1.575ZM950.941 278.66l-.714-1.61-72.618 32.329.715 1.613ZM1281.2 131.621l-.715-1.613-72.617 32.332.719 1.61ZM948.074 271.86l-.633-1.648-74.207 28.484.633 1.649Zm337.5-129.554-.633-1.649-74.207 28.485.633 1.648Zm-340.008 122.61-.543-1.677-75.597 24.563.543 1.676Zm343.817-111.716-.543-1.676-75.598 24.563.547 1.68ZM943.426 257.848l-.457-1.703-76.778 20.574.457 1.703Zm349.195-93.567-.457-1.703-76.781 20.574.457 1.703ZM941.656 250.68l-.367-1.727-77.75 16.527.367 1.727Zm353.614-75.16-.368-1.727-77.75 16.523.368 1.727Zm-355.004 67.91-.274-1.743-78.512 12.434.278 1.742Zm357.062-56.555-.277-1.742-78.508 12.437.277 1.743Zm-358.07 49.242-.184-1.754-79.054 8.309.183 1.754Zm359.531-37.789-.184-1.754-79.054 8.309.183 1.754Zm-360.156 30.434-.094-1.762-79.379 4.16.094 1.762Zm361.015-18.922-.093-1.762-79.38 4.16.095 1.762Zm-361.257 9.777h-79.485v1.766h79.485Zm361.515 0h-79.488v1.766h79.488Zm-361.273-7.379-79.38-4.16-.093 1.762 79.38 4.16Zm361.015 18.922L1220.27 227l-.094 1.762 79.379 4.16Zm-360.39-26.277-79.055-8.309-.183 1.754 79.054 8.309Zm359.531 37.789-79.055-8.309-.183 1.754 79.054 8.309ZM940.266 197.57l-78.508-12.433-.278 1.742 78.512 12.434Zm357.062 56.551-78.508-12.434-.277 1.743 78.508 12.433Zm-355.672-63.8-77.75-16.528-.367 1.727 77.75 16.523Zm353.614 75.16-77.75-16.528-.368 1.727 77.75 16.527Zm-351.844-82.329-76.781-20.574-.457 1.703 76.78 20.574Zm349.195 93.567-76.781-20.574-.457 1.703 76.781 20.574ZM945.566 176.086l-75.597-24.563-.543 1.676 75.597 24.563ZM1289.383 287.8l-75.594-24.567-.547 1.68 75.598 24.563ZM948.074 169.14l-74.207-28.485-.633 1.649 74.207 28.484Zm337.5 129.554-74.207-28.484-.633 1.644 74.207 28.489ZM950.941 162.34l-72.613-32.332-.719 1.613 72.614 32.328ZM1281.2 309.379l-72.613-32.328-.719 1.61 72.617 32.331ZM954.164 155.695 883.34 119.61l-.805 1.57 70.828 36.09Zm322.11 164.125-70.825-36.086-.8 1.57 70.824 36.087ZM957.726 149.23l-68.84-39.746-.883 1.532 68.84 39.742Zm313.078 180.754-68.84-39.742-.883 1.528 68.84 39.746ZM961.62 142.957l-66.664-43.289-.96 1.48 66.663 43.29Zm303.192 196.895-66.665-43.293-.96 1.48 66.664 43.293Zm-298.97-202.95L901.536 90.18l-1.035 1.425 64.305 46.723Zm292.466 212.493-64.305-46.723-1.04 1.426 64.31 46.722ZM970.37 131.07l-61.773-50.023-1.11 1.375 61.774 50.02Zm280.95 227.508-61.774-50.023-1.11 1.37 61.774 50.028Zm-276.118-233.09-59.07-53.187-1.18 1.312 59.07 53.188Zm268.656 241.899-59.074-53.188-1.18 1.313 59.075 53.187ZM980.316 120.168l-56.203-56.207-1.25 1.246 56.207 56.207Zm255.63 255.625-56.208-56.207-1.246 1.246 56.207 56.207ZM985.702 115.117l-53.187-59.07-1.309 1.18 53.188 59.07Zm241.899 268.656-53.188-59.07-1.309 1.18 53.188 59.07ZM991.348 110.36l-50.024-61.773-1.37 1.11 50.023 61.773Zm227.507 280.946-50.023-61.774-1.371 1.11 50.023 61.773Zm-221.62-285.407-46.723-64.304-1.426 1.035 46.723 64.309Zm212.488 292.473L1163 334.063l-1.426 1.039 46.723 64.304Zm-206.38-296.613-43.292-66.664-1.48.96 43.292 66.665Zm196.895 303.187-43.293-66.664-1.48.961 43.293 66.664ZM1009.664 97.938l-39.746-68.836-1.527.878 39.742 68.84Zm180.754 313.078-39.742-68.836-1.528.882 39.743 68.836ZM1016.172 94.457l-36.086-70.824-1.574.8 36.09 70.825Zm164.125 322.11-36.09-70.825-1.57.801 36.086 70.824ZM1022.855 91.32l-32.332-72.617-1.609.719 32.332 72.613Zm147.04 330.258-32.329-72.613-1.613.715 32.332 72.613Zm-140.2-333.039-28.488-74.21-1.644.632 28.484 74.21Zm129.551 337.5-28.484-74.21-1.649.632 28.489 74.21ZM1036.668 86.117l-24.563-75.597-1.675.546 24.562 75.594Zm111.715 343.817-24.563-75.594-1.68.543 24.563 75.597ZM1043.758 84.063l-20.57-76.778-1.704.457 20.57 76.778Zm93.57 349.195-20.574-76.778-1.703.457 20.57 76.778ZM1050.95 82.387l-16.527-77.75-1.723.363 16.524 77.75Zm75.164 353.61-16.527-77.75-1.727.366 16.528 77.75Zm-67.898-354.911L1045.78 2.578l-1.742.274 12.434 78.507Zm56.555 357.062-12.434-78.511-1.742.277 12.433 78.508Zm-49.227-357.98-8.309-79.05-1.754.183 8.31 79.05Zm37.785 359.531-8.308-79.05-1.75.183 8.308 79.05Zm-30.422-360.062-4.16-79.38-1.762.09 4.16 79.38Zm18.918 361.015-4.16-79.379-1.762.09 4.16 79.38ZM1080.285 0h-1.762v79.488h1.762Zm0 361.512h-1.762V441h1.762Zm0 0"/></g><g clip-path="url(#j)"><path fill="#fff" fill-opacity=".21" d="M1144.727 340.984c-40.528 0-73.5-32.972-73.5-73.5s32.972-73.5 73.5-73.5 73.5 32.973 73.5 73.5-32.973 73.5-73.5 73.5m0-145.543c-39.727 0-72.043 32.317-72.043 72.043s32.316 72.043 72.043 72.043c39.726 0 72.043-32.316 72.043-72.043 0-39.726-32.317-72.043-72.043-72.043m0 0"/></g><path fill="#fff" fill-opacity=".5" d="M1144.727 318.164c-27.946 0-50.68-22.734-50.68-50.68s22.734-50.68 50.68-50.68 50.68 22.735 50.68 50.68c0 27.946-22.735 50.68-50.68 50.68m0-99.902c-27.141 0-49.223 22.082-49.223 49.222s22.082 49.223 49.223 49.223 49.222-22.082 49.222-49.223-22.082-49.222-49.222-49.222m0 0"/><path fill="#fff" d="M1144.727 295.344c-15.36 0-27.86-12.5-27.86-27.86s12.5-27.859 27.86-27.859 27.859 12.5 27.859 27.86-12.5 27.859-27.86 27.859m0-54.262c-14.559 0-26.403 11.844-26.403 26.402s11.844 26.403 26.403 26.403 26.402-11.844 26.402-26.403-11.844-26.402-26.402-26.402m0 0"/><g clip-path="url(#k)"><path fill="#fff" fill-opacity=".21" d="M471.207 375.832c-40.527 0-73.5-32.969-73.5-73.5 0-40.527 32.973-73.5 73.5-73.5s73.5 32.973 73.5 73.5c0 40.531-32.973 73.5-73.5 73.5m0-145.543c-39.727 0-72.043 32.32-72.043 72.043 0 39.727 32.316 72.047 72.043 72.047s72.043-32.32 72.043-72.047c0-39.723-32.316-72.043-72.043-72.043m0 0"/></g><path fill="#fff" fill-opacity=".5" d="M471.207 353.012c-27.945 0-50.68-22.735-50.68-50.68 0-27.941 22.735-50.676 50.68-50.676s50.68 22.735 50.68 50.676c0 27.945-22.735 50.68-50.68 50.68m0-99.903c-27.14 0-49.223 22.082-49.223 49.223 0 27.145 22.082 49.227 49.223 49.227s49.223-22.082 49.223-49.227c0-27.14-22.082-49.223-49.223-49.223m0 0"/><path fill="#fff" d="M471.207 330.191c-15.36 0-27.86-12.496-27.86-27.859 0-15.36 12.5-27.855 27.86-27.855s27.86 12.496 27.86 27.855c0 15.363-12.5 27.86-27.86 27.86m0-54.261c-14.559 0-26.402 11.843-26.402 26.402s11.843 26.402 26.402 26.402 26.402-11.843 26.402-26.402-11.843-26.402-26.402-26.402m0 0"/><g clip-path="url(#l)"><path fill="#fff" fill-opacity=".21" d="M471.207 387.383c-40.527 0-73.5-32.973-73.5-73.5 0-40.531 32.973-73.5 73.5-73.5s73.5 32.969 73.5 73.5c0 40.527-32.973 73.5-73.5 73.5m0-145.547c-39.727 0-72.043 32.32-72.043 72.047 0 39.722 32.316 72.043 72.043 72.043s72.043-32.32 72.043-72.043c0-39.727-32.316-72.047-72.043-72.047m0 0"/></g><path fill="#fff" fill-opacity=".5" d="M471.207 364.563c-27.945 0-50.68-22.739-50.68-50.68 0-27.945 22.735-50.68 50.68-50.68s50.68 22.735 50.68 50.68c0 27.941-22.735 50.68-50.68 50.68m0-99.907c-27.14 0-49.223 22.082-49.223 49.227 0 27.14 22.082 49.222 49.223 49.222s49.223-22.082 49.223-49.222c0-27.145-22.082-49.227-49.223-49.227m0 0"/><path fill="#fff" d="M471.207 341.738c-15.36 0-27.86-12.496-27.86-27.855 0-15.363 12.5-27.86 27.86-27.86s27.86 12.497 27.86 27.86c0 15.36-12.5 27.855-27.86 27.855m0-54.258c-14.559 0-26.402 11.844-26.402 26.403s11.843 26.402 26.402 26.402 26.402-11.844 26.402-26.402-11.843-26.403-26.402-26.403m0 0"/><g clip-path="url(#m)"><path fill="#fff" fill-opacity=".21" d="M29.996 103.496c-40.527 0-73.5-32.973-73.5-73.5s32.973-73.5 73.5-73.5 73.5 32.973 73.5 73.5-32.973 73.5-73.5 73.5m0-145.547C-9.73-42.05-42.05-9.73-42.05 29.996c0 39.723 32.32 72.043 72.047 72.043 39.723 0 72.043-32.32 72.043-72.043 0-39.726-32.316-72.047-72.043-72.047m0 0"/></g><path fill="#fff" fill-opacity=".5" d="M29.996 80.676c-27.945 0-50.68-22.735-50.68-50.68s22.735-50.68 50.68-50.68 50.68 22.735 50.68 50.68-22.735 50.68-50.68 50.68m0-99.903c-27.144 0-49.223 22.079-49.223 49.223 0 27.14 22.079 49.223 49.223 49.223 27.14 0 49.223-22.082 49.223-49.223 0-27.144-22.082-49.223-49.223-49.223m0 0"/><path fill="#fff" d="M29.996 57.852c-15.363 0-27.86-12.497-27.86-27.856 0-15.363 12.497-27.86 27.86-27.86 15.36 0 27.856 12.497 27.856 27.86 0 15.36-12.497 27.856-27.856 27.856m0-54.258c-14.558 0-26.402 11.844-26.402 26.402s11.844 26.402 26.402 26.402 26.402-11.843 26.402-26.402c0-14.558-11.843-26.402-26.402-26.402m0 0"/><g clip-path="url(#n)"><path fill="#fff" fill-opacity=".21" d="M29.996 96.969c-40.527 0-73.5-32.973-73.5-73.5 0-40.531 32.973-73.5 73.5-73.5s73.5 32.969 73.5 73.5c0 40.527-32.973 73.5-73.5 73.5m0-145.547c-39.726 0-72.047 32.32-72.047 72.047 0 39.722 32.32 72.043 72.047 72.043 39.723 0 72.043-32.32 72.043-72.043 0-39.727-32.316-72.047-72.043-72.047m0 0"/></g><path fill="#fff" fill-opacity=".5" d="M29.996 74.145c-27.945 0-50.68-22.735-50.68-50.676 0-27.946 22.735-50.68 50.68-50.68s50.68 22.734 50.68 50.68c0 27.941-22.735 50.676-50.68 50.676m0-99.903c-27.144 0-49.223 22.082-49.223 49.227 0 27.14 22.079 49.222 49.223 49.222 27.14 0 49.223-22.082 49.223-49.222 0-27.145-22.082-49.227-49.223-49.227m0 0"/><path fill="#fff" d="M29.996 51.324c-15.363 0-27.86-12.496-27.86-27.855 0-15.364 12.497-27.86 27.86-27.86 15.36 0 27.856 12.496 27.856 27.86 0 15.36-12.497 27.855-27.856 27.855m0-54.258C15.438-2.934 3.594 8.91 3.594 23.47S15.438 49.87 29.996 49.87 56.398 38.027 56.398 23.47 44.555-2.934 29.996-2.934m0 0"/></svg>